<svg xmlns="http://www.w3.org/2000/svg" width="5289" height="5289" viewBox="0 0 5289 5289">
  <defs>
    <style>
      .cls-1, .cls-3 {
        fill: #528540;
      }

      .cls-2 {
        fill: #8dc83a;
      }

      .cls-2, .cls-3 {
        fill-rule: evenodd;
      }
    </style>
  </defs>
  <circle class="cls-1" cx="2578.86" cy="1584.825" r="253.2"/>
  <path class="cls-2" d="M3572.89,1219.1c-251.62,53.14-471.83,210.46-590.79,440.75-87.94,170.21-112.35,364.98-75.03,553.28a2474.751,2474.751,0,0,1,9.38,375.1c-6.1,117.45-22.14,221.67-46.89,300.09-42.54,134.8-112.86,257.77-206.3,365.73,142.54-94.97,258.7-223.61,337.59-375.11a1010.546,1010.546,0,0,0,112.53-412.62c-8.2-110.12-11.32-219.1-9.37-328.21,3.32-186.75,29.18-359.35,65.64-450.13C3247,1495.37,3388.52,1336.85,3572.89,1219.1Z"/>
  <path class="cls-2" d="M4323.1,1172.21c-228.43-15.34-455.61,43.37-647.06,168.8-208.26,136.43-360.44,342.77-431.37,581.41a1110.865,1110.865,0,0,0,225.06-65.64c84.45-34.71,150.54-75.12,234.45-131.29,50.83-34.03,100.16-67.95,150.04-103.16a1149.685,1149.685,0,0,1-647.06,431.38,684.3,684.3,0,0,0,393.86,37.51c145.11-29.31,276.44-105.25,375.11-215.69A1362.117,1362.117,0,0,0,4323.1,1172.21Z"/>
  <path class="cls-3" d="M2166.24,1875.53c267.73,104.93,492.35,279.86,562.66,525.15a587.381,587.381,0,0,1,18.75,93.78,955.334,955.334,0,0,1,0,234.44c-14.61,117.59-46.92,201.44-84.39,290.71-43.12,102.7-87.81,205.47-131.29,300.08a940.1,940.1,0,0,0,65.64,787.72,911.7,911.7,0,0,1-318.84-684.56,1057.254,1057.254,0,0,1,46.89-253.2c23.56-74.7,53.45-133.72,84.4-206.31,19.8-46.45,38.24-92.57,56.26-140.66,51.49-135.98,65.36-281.16,37.51-422-15.74-79.61-65.37-209.28-159.42-337.59A1025.382,1025.382,0,0,0,2166.24,1875.53Z"/>
  <path class="cls-2" d="M956.521,2119.35a2125.326,2125.326,0,0,1,346.969-168.8c150.58-56.85,288.6-83.92,384.49-84.4,158.01-.78,278.36,35.51,356.35,75.03,145.48,73.7,258.62,196.6,328.22,346.97-157.06-99.71-333-158.54-515.77-168.8a1039.91,1039.91,0,0,0-262.58,18.76c68.97,11.82,136.95,24.19,206.31,37.51,115.26,22.13,199.4,41.66,300.09,84.4a1214.428,1214.428,0,0,1,178.17,93.77,1718.219,1718.219,0,0,1-271.95,84.4c-146.3,32.39-287.65,44.92-375.11,37.51C1374.27,2453.91,1141.66,2319.25,956.521,2119.35Z"/>
</svg>
