<svg xmlns="http://www.w3.org/2000/svg" width="2869" height="1185" viewBox="0 0 2869 1185">
  <defs>
    <style>
      .cls-1 {
        fill: #528540;
      }

      .cls-1, .cls-2 {
        fill-rule: evenodd;
      }

      .cls-2 {
        fill: #8dc83a;
      }

      .cls-3 {
        font-size: 850.001px;
        fill: #fff;
        font-family: Helvetica-Condensed-Black, Helvetica;
        font-weight: 800;
      }
    </style>
  </defs>
  <path class="cls-1" d="M715.959,163.714a83.974,83.974,0,1,1-83.97,83.973A83.971,83.971,0,0,1,715.959,163.714Z"/>
  <path class="cls-2" d="M1045.62,126.392c-83.449,17.625-156.478,69.8-195.932,146.176-29.163,56.454-37.258,121.051-24.88,183.5a820.911,820.911,0,0,1,3.11,124.4c-2.023,38.95-7.342,73.517-15.55,99.525-14.108,44.706-37.431,85.489-68.419,121.3A334.472,334.472,0,0,0,893.228,540.04c-2.72-36.522-3.755-72.667-3.11-108.855,1.1-61.934,9.68-119.179,21.77-149.286C937.54,218.021,984.473,165.447,1045.62,126.392Z"/>
  <path class="cls-2" d="M1294.42,110.841A347.61,347.61,0,0,0,936.768,359.652a368.261,368.261,0,0,0,74.642-21.771c28-11.509,49.92-24.912,77.75-43.542,16.86-11.286,33.22-22.535,49.76-34.211A381.283,381.283,0,0,1,924.328,403.194,226.281,226.281,0,0,0,1179.35,344.1a451.913,451.913,0,0,0,65.31-90.194A453.641,453.641,0,0,0,1294.42,110.841Z"/>
  <path class="cls-1" d="M579.119,344.1c88.789,34.8,163.282,92.814,186.6,174.167a195.051,195.051,0,0,1,6.22,31.1,316.907,316.907,0,0,1,0,77.753c-4.847,39-15.562,66.811-27.989,96.415-14.3,34.063-29.121,68.145-43.54,99.524a311.8,311.8,0,0,0,21.77,261.247,302.356,302.356,0,0,1-105.74-227.035,350.685,350.685,0,0,1,15.55-83.974c7.814-24.773,17.727-44.349,27.99-68.423,6.567-15.405,12.681-30.7,18.66-46.652,17.073-45.1,21.675-93.247,12.44-139.957-5.22-26.4-21.68-69.408-52.87-111.965A340.046,340.046,0,0,0,579.119,344.1Z"/>
  <path class="cls-2" d="M177.931,424.965A704.657,704.657,0,0,1,293,368.983c49.938-18.856,95.709-27.833,127.51-27.992,52.4-.26,92.315,11.778,118.179,24.882,48.248,24.444,85.768,65.2,108.85,115.075C595.454,447.88,537.1,428.369,476.49,424.965a344.953,344.953,0,0,0-87.08,6.22c22.874,3.923,45.417,8.024,68.42,12.441,38.224,7.341,66.129,13.819,99.519,27.991a402.864,402.864,0,0,1,59.09,31.1,570.1,570.1,0,0,1-90.19,27.991c-48.519,10.743-95.4,14.9-124.4,12.44C316.473,535.923,239.331,491.263,177.931,424.965Z"/>
  <text id="HelthyCare_System" data-name="HelthyCare System" class="cls-3" transform="translate(977.313 675.755) scale(0.332 0.332)">HelthyCare<tspan x="0" dy="1020.001">System</tspan></text>
</svg>
